<svg version="1.1" xmlns="http://www.w3.org/2000/svg" style="display: block;" viewBox="0 0 2048 2048" width="790" height="790" preserveAspectRatio="none">
<path transform="translate(0,0)" fill="rgb(254,254,254)" d="M 0 0 L 2048 0 L 2048 2048 L 0 2048 L 0 0 z"/>
<path transform="translate(0,0)" fill="rgb(0,0,0)" d="M 67.8418 15.1698 L 318.046 15.2574 C 368.19 15.2302 423.577 14.0095 473.219 16.9794 C 613.38 25.652 750.033 64.3872 873.897 130.554 C 911.585 150.309 946.337 170.589 981.48 194.455 C 995.594 204.04 1011.11 213.383 1024.21 224.259 C 1040.81 211.68 1060.54 198.651 1077.93 187.188 C 1217.58 93.7474 1378.03 36.0057 1545.2 19.0286 C 1603.07 13.5924 1666.62 15.277 1725.24 15.2928 L 1980.51 15.2574 L 1980.41 424.969 C 1980.48 524.324 1981.79 621.708 1974.89 720.927 C 1960.2 966.485 1890.55 1205.61 1771.07 1420.64 C 1747.01 1463.3 1723.08 1500.15 1695.76 1540.5 C 1558.02 1731.92 1398.34 1868.82 1183.95 1969.82 C 1137.31 1991.78 1073.03 2019.94 1023.44 2034.34 C 822.91 1969.97 612.966 1841.58 469.844 1686.62 C 243.416 1441.47 109.132 1108.13 77.6471 777.719 C 64.7973 642.869 67.5507 506.986 67.5949 371.703 L 67.5739 141.451 C 67.5407 101.65 66.3519 54.4 67.8418 15.1698 z"/>
<path transform="translate(0,0)" fill="rgb(254,254,254)" d="M 125.316 73.0481 L 329.658 72.8938 C 375.619 72.8909 422.715 71.8409 468.851 74.2198 C 609.373 81.4656 746.984 126.277 869.777 193.902 C 905.571 213.615 944.088 236.766 976.547 261.128 C 945.041 285.224 926.155 304.674 897.739 329.606 C 886.32 323.626 872.894 314.721 861.223 308.141 C 839.463 296.068 817.249 284.831 794.631 274.454 C 714.433 237.677 629.016 213.56 541.426 202.964 C 486.275 196.697 435.565 196.675 380.309 196.681 L 239.787 196.939 C 238.457 264.169 240.217 331.764 239.622 399.021 C 239.017 467.398 241.437 535.497 254.767 602.775 C 287.257 764.273 384.563 905.377 523.969 993.146 C 559.981 1015.59 595.775 1032.39 632.844 1052.24 C 666.315 1070.21 698.85 1089.86 730.325 1111.13 C 900.399 1225.19 1001.14 1376.35 1057.18 1573.53 C 1067.76 1610.77 1072.21 1640.77 1079.58 1678.14 C 1318.34 1590.59 1477.14 1402.96 1525.17 1153.45 C 1538.53 1144.48 1565.43 1133.4 1580.98 1124.37 C 1632.56 1094.78 1680.6 1059.41 1724.16 1018.95 C 1719.43 1038.38 1709.64 1065.6 1703.15 1084.96 C 1664.31 1202.5 1609.3 1314.05 1539.72 1416.43 C 1413.37 1601.39 1233.55 1743.37 1024.32 1823.36 C 971.847 1801.99 929.199 1782.42 879.421 1755.11 C 656.542 1632.79 498.689 1444.12 395.538 1213.3 C 367.404 1150.58 343.676 1085.98 324.526 1019.96 C 367.789 1059.62 415.296 1094.38 466.184 1123.62 C 484.659 1134.18 504.744 1142.87 523.168 1153.44 C 535.678 1217.77 550.133 1265.66 577.694 1325.45 C 636.764 1451.59 733.329 1556.43 854.202 1625.64 C 896.06 1649.37 928.319 1662.77 972.561 1679.09 C 930.68 1449.09 819.394 1252.89 611.099 1134.76 C 579.831 1116.7 547.47 1100.19 515.343 1083.74 C 294.628 970.746 152.176 743.306 129.713 498.354 C 123.657 432.307 125.334 366.937 125.356 300.993 L 125.316 73.0481 z"/>
<path transform="translate(0,0)" fill="rgb(254,254,254)" d="M 1595.67 73.4449 C 1628.29 71.4223 1674.87 72.9198 1708.78 72.9197 L 1922.68 73.0626 L 1922.54 311.682 C 1922.66 402.728 1925.63 473.204 1909.71 563.446 C 1875.26 764.826 1757.93 942.526 1586.27 1053.31 C 1537.92 1084.6 1479.19 1109 1428.79 1139.84 C 1263.93 1240.7 1173.78 1362.88 1108.81 1541.89 C 1093.46 1493.21 1078.52 1450.97 1057 1404.61 C 1094.3 1323.3 1165.08 1234.32 1232.43 1176.19 C 1286.74 1129.32 1343.08 1092.47 1405.7 1057.33 C 1435.81 1040.44 1467.54 1025.74 1497.78 1008.93 C 1545.46 982.005 1589.39 948.93 1628.45 910.556 C 1735.73 803.219 1791.91 671.108 1805.34 520.456 C 1810.01 468.073 1808.9 417.868 1808.83 365.365 L 1808.7 196.748 L 1666.41 196.71 C 1625.77 196.727 1584.52 196.418 1543.96 199.538 C 1445.72 206.838 1349.53 231.342 1259.76 271.932 C 1217.95 291.007 1190.32 307.382 1151.02 329.851 C 1123.62 305.102 1100.98 283.895 1072.2 260.05 C 1229.56 150.4 1402.73 81.8109 1595.67 73.4449 z"/>
<path transform="translate(0,0)" fill="rgb(254,254,254)" d="M 133.477 751.81 C 135.677 753.833 158.379 801.798 162.196 809.162 C 168.429 821.179 174.989 833.024 181.87 844.682 C 192.197 861.97 203.842 878.739 215.081 895.565 C 220.572 905.832 241.459 926.118 244.004 936.229 C 250.55 962.238 255.654 991.12 262.988 1017.02 C 282.578 1087.39 307.072 1156.31 336.291 1223.26 C 435.807 1452.38 590.566 1648.96 805.585 1779.59 C 877.552 1823.32 945.614 1854.5 1023.58 1885.2 C 1025.9 1884.47 1028.2 1883.69 1030.48 1882.84 C 1066.6 1869.3 1095.62 1856.07 1130.27 1839.69 C 1420.44 1702.54 1613.96 1471.02 1732.11 1175.23 C 1752.68 1122.93 1770.54 1069.6 1785.61 1015.46 C 1789.91 999.533 1793.82 983.501 1797.34 967.382 C 1798.78 960.909 1803.38 937.874 1805.82 933.319 C 1809.72 926.049 1822.43 910.286 1828.04 902.548 C 1837 889.953 1845.71 877.18 1854.16 864.234 C 1878.79 826.614 1895.93 790.987 1914.5 750.457 C 1913.25 773.269 1908.88 808.418 1905.5 831.24 C 1888.05 969.828 1851.49 1105.33 1796.88 1233.89 C 1674.09 1523.73 1487.63 1746.42 1206.81 1893.86 C 1170.98 1912.41 1134.45 1929.58 1097.3 1945.32 C 1072.82 1955.44 1048.16 1964.15 1023.71 1974.06 C 995.452 1961.96 965.743 1951.53 936.831 1939.13 C 817.442 1887.9 710.464 1823.64 610.738 1740.08 C 405.23 1567.88 258.447 1305.82 186.57 1049.33 C 159.855 951.982 142.084 852.394 133.477 751.81 z"/>
<path transform="translate(0,0)" fill="rgb(254,254,254)" d="M 1743.32 254.505 L 1750.89 254.471 L 1750.89 386.98 C 1750.88 472.1 1751.26 541.258 1728.38 625.489 C 1691.98 759.508 1611.34 869.751 1493.94 944.217 C 1463.16 963.744 1428.8 980.337 1396.37 997.297 C 1378.46 1006.88 1360.71 1016.75 1343.11 1026.88 C 1341.02 991.092 1336.23 955.513 1328.77 920.449 C 1429.77 874.471 1504.71 824.308 1569.85 733.413 C 1616.4 664.938 1639.99 592.71 1647.2 510.337 C 1651.66 459.263 1649.28 410.258 1647.72 359.184 C 1497.94 358.526 1394.18 376.657 1260.6 449.106 C 1239.53 421.612 1216.84 397.935 1194.12 372.191 C 1219.12 355.418 1261.6 334.764 1288.88 322.516 C 1373.85 284.679 1464.9 262.323 1557.73 256.501 C 1615.09 252.935 1684.88 254.614 1743.32 254.505 z"/>
<path transform="translate(0,0)" fill="rgb(254,254,254)" d="M 296.917 254.59 C 358.386 255.123 428.009 252.818 488.766 256.489 C 618.561 264.188 744.367 304.24 854.723 372.997 C 833.102 394.383 806.519 424.822 788.052 448.852 C 648.09 377.132 557.96 358.166 400.572 359.405 C 394.841 496.813 396.592 607.524 474.153 727.066 C 538.757 823.867 617.036 871.766 719.6 920.522 C 711.179 959.312 707.636 987.094 705.198 1026.75 C 680.806 1012.66 655.599 998.163 630.246 985.892 C 565.25 954.433 508.655 917.378 457.304 865.968 C 413.231 821.556 377.463 769.613 351.693 712.598 C 300.473 598.726 297.186 509.856 297.048 388.266 L 296.917 254.59 z"/>
<path transform="translate(0,0)" fill="rgb(254,254,254)" d="M 1024.15 737.933 C 1058.28 782.246 1093.79 860.602 1108.81 914.218 C 1140.33 1023.53 1130.73 1140.59 1081.83 1243.31 C 1065.64 1276.62 1042.95 1309.16 1024.15 1342.62 C 1010.24 1316.49 994.7 1294.31 980.298 1269.41 C 955.709 1226.89 936.512 1170.16 927.833 1121.81 C 903.445 985.93 946.753 849.45 1024.15 737.933 z"/>
<path transform="translate(0,0)" fill="rgb(254,254,254)" d="M 1581.72 417.435 L 1591.88 417.029 C 1593.06 444.13 1592.53 471.279 1590.29 498.313 C 1580.09 617.408 1535.19 707.961 1443.99 784.953 C 1432.19 749.183 1421.17 722.031 1406 687.657 C 1382.34 630.253 1332.06 544.897 1295.63 495.269 C 1388.79 445.489 1477.13 423.203 1581.72 417.435 z"/>
<path transform="translate(0,0)" fill="rgb(254,254,254)" d="M 456.117 417.665 C 565.817 419.073 655.629 445.401 752.765 495.268 C 711.964 550.622 676.033 615.121 647.003 677.282 C 630.004 714.14 616.602 746.545 604.194 784.983 C 592.111 773.97 581.642 765.62 570.101 753.637 C 475.352 655.261 454.731 548.6 456.117 417.665 z"/>
<path transform="translate(0,0)" fill="rgb(254,254,254)" d="M 920.853 618.52 C 933.141 625.869 976.698 675.977 987.891 689.035 C 887.242 831.132 841.103 976.485 874.065 1150.21 L 856.294 1134.15 C 824.415 1106.38 795.522 1084.86 761.217 1060.78 C 762.631 911.616 827.815 735.242 920.853 618.52 z"/>
<path transform="translate(0,0)" fill="rgb(254,254,254)" d="M 1127.15 617.782 C 1142.23 635.027 1162.17 667.525 1174.35 687.219 C 1241.9 796.437 1284.85 932.649 1287.23 1061.65 C 1255.34 1082.58 1224.98 1105.74 1196.37 1130.97 L 1174.36 1149.84 C 1176.82 1137.67 1178.9 1125.44 1180.58 1113.14 C 1200.68 963.843 1151.25 807.879 1060.55 689.256 C 1083.41 664.373 1101.87 641.556 1127.15 617.782 z"/>
<path transform="translate(0,0)" fill="rgb(254,254,254)" d="M 904.755 404.809 C 913.432 412.365 930.659 423.048 940.528 430.829 C 954.669 441.979 967.453 452.827 981.167 464.492 C 891.326 548.126 819.487 649.206 770.044 761.552 C 758.046 789.306 747.339 817.808 738.929 846.871 C 737.79 850.806 735.444 860.154 732.988 862.912 C 706.232 849.359 679.126 835.934 653.833 819.796 C 665.508 790.19 673.176 762.536 686.415 731.665 C 728.784 631.947 786.122 539.279 856.447 456.859 C 872.223 438.461 886.909 421.315 904.755 404.809 z"/>
<path transform="translate(0,0)" fill="rgb(254,254,254)" d="M 1455.64 1190.92 L 1456.42 1191.7 C 1456.3 1192.83 1456.22 1193.79 1455.91 1194.94 C 1411.03 1360.67 1308.72 1492.9 1159.58 1578.18 L 1158.7 1577.19 C 1164.96 1551.51 1182.68 1513.12 1193.38 1488.45 C 1235.73 1390.73 1298.89 1307.5 1382.53 1241.4 C 1406.83 1222.2 1429.56 1207.61 1455.64 1190.92 z"/>
<path transform="translate(0,0)" fill="rgb(254,254,254)" d="M 591.381 1191.36 C 610.365 1199.73 643.254 1224.8 660.116 1237.41 C 773.888 1322.44 845.212 1444.24 889.236 1577.64 C 886.112 1576.65 881.891 1574.16 879.012 1572.5 C 731.309 1487.6 637.251 1353.24 591.381 1191.36 z"/>
<path transform="translate(0,0)" fill="rgb(254,254,254)" d="M 1245.07 525.165 C 1247.55 527.202 1263.38 550.818 1265.92 554.562 C 1321.52 636.4 1363.63 726.436 1394.58 820.203 C 1368.95 835.486 1345.78 847.698 1319.33 861.524 C 1317.38 862.593 1317.53 862.55 1315.31 862.59 C 1311.42 858.532 1307.89 841.171 1305.73 834.509 C 1296.96 807.546 1286.9 781.025 1275.56 755.038 C 1245.11 686.358 1214.45 638.443 1171.15 578.27 C 1191.65 560.681 1222.28 539.532 1245.07 525.165 z"/>
<path transform="translate(0,0)" fill="rgb(254,254,254)" d="M 1024.58 295.753 C 1028.54 298.645 1032.32 301.883 1036.01 305.111 C 1057.96 324.312 1081.23 342.79 1101.8 363.481 C 1075.28 383.12 1049.37 403.569 1024.1 424.798 C 1000.81 403.462 971.639 381.855 946.323 362.802 C 969.388 341.474 1000.06 314.785 1024.58 295.753 z"/>
<path transform="translate(0,0)" fill="rgb(254,254,254)" d="M 1144.32 405.083 C 1151.96 409.508 1203.53 469.809 1209.85 479.3 C 1201.06 486.3 1187.91 494.225 1178.32 500.901 C 1163.14 511.488 1148.51 522.844 1134.49 534.922 C 1117.85 513.092 1087.44 483.482 1068.03 463.953 C 1085.61 446.876 1123.7 418.292 1144.32 405.083 z"/>
<path transform="translate(0,0)" fill="rgb(254,254,254)" d="M 1023.57 503.77 C 1029.43 504.924 1083.06 563.762 1091.12 572.844 C 1066.28 596.731 1047.81 615.801 1024.92 641.676 C 1021.91 640.192 1008.84 625.156 1005.89 621.734 C 990.631 604.044 974.403 588.4 957.595 572.214 C 976.941 550.668 1002.19 522.736 1023.57 503.77 z"/>
</svg>