<svg version="1.1" xmlns="http://www.w3.org/2000/svg" style="display: block;" viewBox="0 0 2048 2048" width="1227" height="1227" preserveAspectRatio="none">
<path transform="translate(0,0)" fill="rgb(255,255,255)" d="M 0 0 L 2048 0 L 2048 2048 L 0 2048 L 0 0 z"/>
<path transform="translate(0,0)" fill="rgb(0,0,0)" d="M 624.364 803.424 C 633.997 802.803 646.37 803.376 655.908 804.476 C 701.325 809.43 742.839 832.447 771.1 868.342 C 811.162 919.517 824.749 993.947 816.864 1057.57 L 543.981 1057.67 C 547.795 1082.81 555.573 1105.9 574.024 1124.28 C 605.71 1155.86 657.456 1157.36 696.151 1138.76 C 713.891 1130.23 727.852 1115.36 741.468 1101.37 L 769.749 1130.36 C 781.056 1142.06 793.347 1153.92 805.03 1165.28 C 738.902 1259.28 600.178 1271.96 514.84 1198.19 C 424.068 1119.72 421.991 949.958 498.955 861.701 C 531.739 824.107 575.401 806.389 624.364 803.424 z"/>
<path transform="translate(0,0)" fill="rgb(255,255,255)" d="M 623.516 894.307 C 682.095 888.506 711.76 930.378 719.558 983.455 L 641.87 983.564 L 544.365 983.507 C 548.911 937.565 576.751 901.156 623.516 894.307 z"/>
<path transform="translate(0,0)" fill="rgb(0,0,0)" d="M 386.612 678.858 L 492.94 678.899 L 454.173 793.453 C 437.64 838.757 422.045 887.37 406.408 933.199 L 302.42 1237.99 L 199.901 1237.9 L 110.62 975.07 C 120.565 947.751 133.872 913.69 142.098 886.174 C 117.149 862.365 77.9229 830.906 53.5078 805.138 C 50.1002 801.542 39.1619 766.734 36.8545 759.869 L 9.67274 678.948 C 44.7849 678.424 80.9709 678.868 116.168 678.863 C 121.804 697.168 146.134 779.725 153.628 790.401 C 157.133 795.395 163.483 799.762 168.138 803.674 C 184.638 817.541 211.678 836.067 220.995 855.546 C 236.205 887.35 216.229 922.668 205.47 953.542 C 219.041 999.267 235.831 1051.05 251.255 1096.21 C 256.366 1083.05 261.489 1065.39 265.878 1051.62 L 291.576 971.377 L 386.612 678.858 z"/>
<path transform="translate(0,0)" fill="rgb(0,0,0)" d="M 1918.72 812.035 L 2032.52 812.085 C 2024.9 822.975 2017.21 835.02 2010.26 846.375 C 1960.97 926.878 1906.73 1005.39 1858.32 1086.35 C 1884.16 1072.83 1904.94 1067.34 1934.14 1073.57 C 1941.18 1081.04 1963.17 1116.6 1969.93 1127.17 C 1992.89 1163.15 2016.04 1199 2039.39 1234.73 C 2000.31 1235.31 1959.91 1234.85 1920.73 1234.88 C 1914.32 1225.17 1908.05 1215.36 1901.91 1205.47 L 1842.43 1109.46 L 1757.92 1248.93 C 1744.52 1270.67 1725.33 1306.42 1708.04 1323.5 C 1668.81 1362.24 1620.25 1368.88 1567.7 1368.84 C 1626.8 1270.51 1691.65 1174.47 1751.11 1076.28 C 1762.18 1057.99 1774.05 1039.38 1785.91 1021.58 C 1752.94 973.781 1723.74 920.475 1691.91 871.757 C 1679.51 852.774 1666.02 831.858 1654.88 812.254 C 1690.85 811.072 1732.03 812.06 1768.4 812.07 C 1793.27 850.911 1818.34 894.233 1842.23 933.999 C 1867.94 895.01 1893.61 851.823 1918.72 812.035 z"/>
<path transform="translate(0,0)" fill="rgb(0,0,0)" d="M 1323.7 803.436 C 1396.45 800.275 1453.72 845.43 1464.21 918.054 C 1470.28 960.084 1468.04 1003.89 1468.01 1046.43 L 1468.05 1234.82 L 1367.89 1234.91 L 1367.98 991.617 C 1367.73 943.141 1353.19 899.846 1295.96 901.714 C 1273.4 902.45 1258.8 908.198 1243.09 924.658 C 1227.16 944.098 1222.41 965.317 1222.21 990.157 C 1222.02 1013.28 1222.2 1036.41 1222.21 1059.53 L 1222.21 1234.7 C 1189.53 1235.25 1155.76 1234.86 1122.98 1234.89 L 1123.09 812.11 L 1214.15 812.101 L 1214.18 864.51 C 1241.83 824.948 1275.7 806.599 1323.7 803.436 z"/>
<path transform="translate(0,0)" fill="rgb(0,0,0)" d="M 1064.32 804.422 C 1069.53 804.203 1078.56 804.882 1084.05 805.141 L 1084.14 911.049 C 1051.68 909.288 1015.02 911.827 990.931 936.475 C 954.409 973.835 961.913 1040.29 961.921 1088.97 L 961.978 1234.81 L 862.052 1234.88 L 862.03 1191.5 L 862.098 812.171 C 892.619 811.831 923.57 812.107 954.124 812.13 C 954.062 834.715 954.444 857.299 955.268 879.869 C 973.007 832.333 1014.98 807.269 1064.32 804.422 z"/>
<path transform="translate(0,0)" fill="rgb(0,0,0)" d="M 1523.49 812.094 L 1622.2 812.103 L 1622.53 1234.79 L 1523.37 1234.91 L 1523.49 812.094 z"/>
<path transform="translate(0,0)" fill="rgb(0,0,0)" d="M 1523.46 678.317 C 1555.52 677.609 1589.91 678.24 1622.1 678.351 L 1622.45 767.275 L 1523.34 767.414 L 1523.46 678.317 z"/>
</svg>